PathFileType	4	(X/Y/Z)	W12_1_OpenSim.trc																																																																																																				
DataRate	CameraRate	NumFrames	NumMarkers	Units	OrigDataRate	OrigDataStartFrame	OrigNumFrames																																																																																																
100	100	6	34	mm	100	1111	2962																																																																																																
Frame#	Time	R.ASIS			R.PSIS			S2			L.PSIS			L.ASIS			R.TH1			R.TH2			R.TH3			R.Knee			R.SH1			R.SH2			R.SH3			R.SH4			R.Ankle			R.RFoot			R.Heel			R.MT5			R.MT1			L.TH1			L.TH2			L.TH3			L.TH4			L.Knee			L.SH1			L.SH2			L.SH3			L.Ankle			L.RFoot			L.Heel			L.MT5			L.MT1			T.Top			T.Lat			T.Bot		
		X1	Y1	Z1	X2	Y2	Z2	X3	Y3	Z3	X4	Y4	Z4	X5	Y5	Z5	X6	Y6	Z6	X7	Y7	Z7	X8	Y8	Z8	X9	Y9	Z9	X10	Y10	Z10	X11	Y11	Z11	X12	Y12	Z12	X13	Y13	Z13	X14	Y14	Z14	X15	Y15	Z15	X16	Y16	Z16	X17	Y17	Z17	X18	Y18	Z18	X19	Y19	Z19	X20	Y20	Z20	X21	Y21	Z21	X22	Y22	Z22	X23	Y23	Z23	X24	Y24	Z24	X25	Y25	Z25	X26	Y26	Z26	X27	Y27	Z27	X28	Y28	Z28	X29	Y29	Z29	X30	Y30	Z30	X31	Y31	Z31	X32	Y32	Z32	X33	Y33	Z33	X34	Y34	Z34
1111	11.1	1037.2633	992.3373	-442.5115	834.4291	1026.4065	-507.4573	827.2384	1020.8836	-558.957	841.2772	1028.7209	-609.5835	1050.6563	992.6487	-677.7706	1044.292	731.2151	-373.3385	964.0348	710.1358	-376.7127	992.1923	602.8067	-377.9271	1023.2601	484.858	-387.9026	983.7268	404.3201	-376.0495	900.4149	328.7324	-377.9033	932.3747	465.8182	-397.8436	848.5026	390.1282	-392.4013	734.3847	205.5894	-430.11	720.4016	150.4716	-421.3022	688.5618	221.2839	-491.3163	767.0308	77.2553	-396.4674	814.8227	54.6873	-472.692	1065.4235	713.087	-705.116	1060.6227	604.4318	-697.9182	988.5308	709.4752	-738.3914	985.627	599.8982	-724.3779	995.2572	475.5852	-696.4229	1003.8971	349.7054	-693.1614	923.535	359.6768	-711.7523	910.2069	250.3118	-692.7555	912.8606	65.9325	-653.2962	947.9924	14.9714	-658.4105	861.193	42.4566	-605.9547	1031.0826	12.5038	-681.0653	1068.7473	25.7298	-586.9344	864.231	464.333	-445.7882	862.7439	469.9595	-483.533	849.7798	434.0193	-465.8584
1112	11.11	1036.8817	993.1461	-443.5937	833.7382	1027.2593	-507.2874	826.2246	1021.6277	-558.7773	839.9849	1029.4459	-609.4183	1049.0625	993.0379	-678.6183	1048.0099	734.0026	-374.1472	968.3201	711.4583	-376.1407	998.4334	604.5433	-377.9424	1030.8019	487.1303	-389.3668	993.6756	404.785	-377.2788	913.0137	326.4269	-378.7271	940.2869	464.4033	-398.9773	859.1299	385.9586	-393.2456	752.5643	197.204	-430.8816	741.1202	141.2092	-421.3874	704.413	209.3272	-492.0258	791.9272	71.9014	-395.6787	840.7573	51.1147	-472.4078	1060.1819	712.4368	-706.0554	1053.8481	604.1268	-698.8495	982.8837	710.1645	-738.5426	978.4365	600.6468	-724.6781	986.1137	475.9591	-696.794	993.7825	349.9104	-693.6412	913.6215	360.6371	-711.8093	899.462	251.3118	-692.695	901.2705	66.9122	-653.0065	936.1647	15.3001	-657.926	847.5851	45.4679	-607.6533	1019.0139	12.6991	-680.9608	1057.0925	25.9266	-587.1429	872.1862	460.6131	-446.8677	871.5818	466.6221	-484.6457	859.8218	430.4373	-466.7142
1113	11.12	1036.3772	993.9362	-444.6058	832.8933	1028.1967	-506.8957	825.1949	1022.3952	-558.5359	838.6783	1030.2213	-609.2275	1047.2645	993.2985	-679.6705	1051.4126	736.5696	-374.8537	972.1695	712.6263	-375.6474	1003.9921	606.3231	-378.141	1037.7738	489.1527	-390.8414	1003.2783	404.9453	-378.4285	925.9966	323.7356	-379.6124	947.5408	462.7339	-399.6335	869.7861	380.8344	-393.7137	770.9035	187.1534	-431.3023	762.8285	131.1027	-421.0984	721.6536	196.043	-492.5647	818.3887	66.3077	-395.0682	867.5585	47.1048	-471.5482	1054.8375	711.9279	-706.8292	1046.8156	603.4471	-699.7602	977.1788	710.7864	-738.6308	971.1804	601.4847	-724.798	977.1281	476.3488	-697.2038	983.9711	350.3106	-693.8669	901.5906	361.7466	-712.0593	888.7153	252.2789	-692.5002	889.4813	67.9913	-652.9043	924.1948	16.0225	-657.6564	836.1155	47.1241	-606.9761	1007.2837	12.8509	-680.8929	1045.442	25.8153	-587.139	879.4352	456.3798	-447.2867	879.135	461.9507	-485.3912	868.2496	425.573	-467.2339
1114	11.13	1036.1291	994.5358	-445.5227	832.3021	1028.9042	-506.4598	824.0486	1023.1265	-558.033	837.1623	1030.9274	-608.9518	1045.7878	993.6406	-680.5098	1054.6814	738.9158	-375.6817	975.6183	713.904	-375.3482	1009.0266	607.9144	-378.5923	1044.0081	490.9932	-392.2819	1012.8311	405.0542	-379.5896	939.0116	320.1561	-380.8195	954.3831	460.1242	-400.0963	880.6164	374.4903	-393.6357	789.9288	176.6534	-431.6209	785.4533	120.8081	-420.7658	740.0101	181.8742	-493.0068	845.2203	60.2952	-393.816	895.3717	42.956	-470.2412	1049.7379	711.3575	-707.4557	1040.2063	603.197	-700.7115	971.8058	711.4618	-738.5942	964.7033	602.0769	-724.2789	968.5554	476.9524	-697.4568	974.0228	350.6959	-694.2377	891.8217	362.9957	-711.6727	876.6973	254.3854	-692.9326	877.7782	69.2478	-652.564	912.0126	16.7662	-657.735	824.7643	48.5391	-606.2644	995.1893	12.8422	-680.79	1033.546	25.7413	-587.2482	886.2682	451.0733	-447.1517	885.2235	456.9621	-485.0051	876.3236	420.0175	-467.4271
1115	11.14	1035.6113	995.0505	-446.2375	831.6015	1029.5227	-506.1139	823.1205	1023.8247	-557.525	836.0638	1031.5592	-608.3729	1043.9738	993.8629	-681.2629	1057.4705	741.0047	-376.6497	978.7003	715.0758	-375.093	1013.0399	609.5466	-379.1699	1049.3895	492.5992	-393.6766	1021.9273	405.0572	-380.6202	952.9345	315.3767	-382.5185	960.5256	457.508	-400.5474	890.6078	368.0143	-394.0228	810.2208	165.5342	-431.5548	808.7831	109.9912	-420.068	759.6197	167.0212	-493.3085	872.7376	54.3269	-392.174	923.6169	39.1984	-467.8351	1044.498	710.8808	-707.9351	1033.7716	602.7813	-701.3193	966.1717	712.1553	-738.4723	957.6178	602.7409	-725.1396	959.9677	477.4593	-697.7364	964.4919	351.2349	-694.3268	882.2881	363.7672	-711.3007	866.3786	255.4511	-692.6683	866.5349	70.5606	-652.1013	900.1785	17.6315	-657.2805	814.0712	49.2891	-605.944	983.3182	12.8747	-680.7307	1022.0654	26.468	-587.6071	892.8065	445.139	-447.0969	891.1337	451.0593	-484.8845	883.8932	413.9119	-467.1509
1116	11.15	1035.2783	995.3524	-446.9588	830.7267	1030.1946	-505.5308	822.176	1024.4149	-556.8882	834.5109	1032.0945	-607.8846	1042.1437	994.0486	-681.8675	1059.7944	742.5939	-377.7318	981.3655	716.2648	-375.2995	1016.9769	610.9429	-379.8591	1054.2505	493.8933	-395.1517	1030.443	404.9612	-381.8317	966.3672	311.9331	-383.3539	966.5583	453.1221	-400.8728	901.0099	361.1322	-394.055	831.6057	154.3891	-431.4851	833.4974	99.6149	-418.9412	780.7588	151.3758	-493.1059	900.6874	48.2148	-390.1847	953.1161	35.5059	-465.7147	1039.5051	710.5055	-708.2612	1027.1916	602.3492	-701.8523	961.0927	712.7062	-738.2452	951.1763	603.4557	-725.1676	951.4883	477.8018	-697.8106	955.04	351.7633	-694.5246	872.6175	365.2769	-711.2186	856.2213	256.6892	-692.5552	854.9642	72.8689	-652.4112	888.3619	18.5469	-656.9278	801.113	51.6085	-604.6484	971.0812	13.1325	-680.8964	1009.7871	25.4849	-587.6811	899.6398	438.1265	-447.2005	896.6583	444.5221	-484.649	892.094	406.3475	-467.3094
